<svg width="195" height="48" viewBox="0 0 195 48" fill="none" xmlns="http://www.w3.org/2000/svg">
<g clip-path="url(#clip0_752_170)">
<path d="M181.186 20.7299C180.88 20.7299 180.622 20.6118 180.387 20.3757C180.175 20.1396 180.058 19.8799 180.058 19.5493V1.46374C180.058 1.15681 180.175 0.873484 180.387 0.63738C180.598 0.401276 180.88 0.283223 181.186 0.283223H193.825C194.107 0.283223 194.366 0.377665 194.577 0.590159C194.789 0.802653 194.883 1.03876 194.883 1.34569C194.883 1.65263 194.789 1.88873 194.577 2.10123C194.366 2.31372 194.131 2.40816 193.825 2.40816H182.36V9.37324H192.533C192.815 9.37324 193.073 9.49129 193.285 9.70378C193.496 9.91628 193.59 10.1524 193.59 10.4357C193.59 10.719 193.496 10.9787 193.285 11.1912C193.073 11.4037 192.839 11.4982 192.533 11.4982H182.36V18.6521H193.99C194.272 18.6521 194.53 18.7466 194.742 18.9591C194.953 19.1716 195.047 19.4077 195.047 19.7146C195.047 20.0215 194.953 20.2576 194.742 20.4701C194.53 20.6826 194.295 20.7771 193.99 20.7771H181.209L181.186 20.7299ZM1.12771 20.7299C0.822289 20.7299 0.540361 20.6118 0.328916 20.3757C0.11747 20.1396 0 19.8799 0 19.5493V1.46374C0 1.15681 0.11747 0.873484 0.328916 0.63738C0.540361 0.401276 0.822289 0.283223 1.12771 0.283223H13.7675C14.0494 0.283223 14.3078 0.377665 14.5193 0.590159C14.7307 0.802653 14.8247 1.03876 14.8247 1.34569C14.8247 1.65263 14.7307 1.88873 14.5193 2.10123C14.3078 2.31372 14.0729 2.40816 13.7675 2.40816H2.30241V9.37324H12.4753C12.7572 9.37324 13.0157 9.49129 13.2271 9.70378C13.4386 9.91628 13.5325 10.1524 13.5325 10.4357C13.5325 10.719 13.4386 10.9787 13.2271 11.1912C13.0157 11.4037 12.7807 11.4982 12.4753 11.4982H2.30241V18.6521H13.9319C14.2139 18.6521 14.4723 18.7466 14.6837 18.9591C14.8952 19.1716 14.9892 19.4077 14.9892 19.7146C14.9892 20.0215 14.8952 20.2576 14.6837 20.4701C14.4723 20.6826 14.2373 20.7771 13.9319 20.7771H1.12771V20.7299ZM30.7771 21.0132C27.9343 21.0132 25.3735 20.0924 23.0711 18.2744C22.7892 18.0855 22.6247 17.7785 22.6247 17.4008C22.6247 17.0938 22.7422 16.8105 22.9536 16.598C23.1651 16.3855 23.4235 16.2675 23.7289 16.2675C24.0108 16.2675 24.2458 16.3619 24.4337 16.5272C26.3367 18.1327 28.4747 18.9591 30.8476 18.9591C32.2102 18.9591 33.291 18.6285 34.1367 17.991C34.959 17.33 35.3819 16.5036 35.3819 15.4883V15.4411C35.3819 14.4495 35.006 13.6703 34.2777 13.0801C33.5494 12.4898 32.1398 11.994 30.0958 11.569C27.6994 11.0496 25.9608 10.3413 24.8801 9.44407C23.7994 8.57048 23.259 7.29552 23.259 5.6664V5.61918C23.259 4.01367 23.8934 2.66788 25.1386 1.62902C26.4072 0.566549 28.0048 0.0471191 29.9313 0.0471191C32.3982 0.0471191 34.5596 0.708211 36.4157 2.05401C36.7446 2.31372 36.909 2.62066 36.909 2.99842C36.909 3.30536 36.7916 3.56507 36.5801 3.77757C36.3687 3.99006 36.1102 4.10811 35.8048 4.10811C35.5464 4.10811 35.3349 4.03728 35.147 3.89562C33.5259 2.7151 31.7639 2.12484 29.8843 2.12484C28.5922 2.12484 27.5349 2.43177 26.7361 3.06925C25.9374 3.70674 25.538 4.48588 25.538 5.40669V5.45391C25.538 6.46916 25.9139 7.27191 26.6892 7.83856C27.4645 8.42882 28.9211 8.94825 31.059 9.42046C33.3614 9.91628 35.053 10.6246 36.0867 11.5454C37.144 12.4426 37.6608 13.6703 37.6608 15.205V15.2522C37.6608 16.9758 37.003 18.3688 35.7108 19.4313C34.4187 20.4937 32.7506 21.0132 30.7066 21.0132H30.7771ZM83.9205 21.0368C81.3362 21.0368 79.2922 20.2576 77.7651 18.723C76.238 17.1647 75.4627 14.9925 75.4627 12.1593V1.32208C75.4627 1.01515 75.5801 0.731822 75.7916 0.495717C76.003 0.259613 76.2849 0.141561 76.5904 0.141561C76.9193 0.141561 77.2012 0.259613 77.4127 0.472107C77.6241 0.684601 77.7416 0.967926 77.7416 1.29847V12.0176C77.7416 14.1898 78.2819 15.8897 79.3861 17.0938C80.4904 18.298 82.0175 18.9119 83.944 18.9119C85.8705 18.9119 87.3506 18.3452 88.4548 17.1883C89.5355 16.0314 90.0759 14.3786 90.0759 12.1593V1.32208C90.0759 0.991536 90.1934 0.708211 90.4283 0.495717C90.6633 0.283223 90.9217 0.165171 91.2506 0.165171C91.5795 0.165171 91.838 0.283223 92.0494 0.519328C92.2608 0.755432 92.3783 1.01515 92.3783 1.34569V12.0176C92.3783 14.9453 91.603 17.1647 90.0759 18.723C88.5488 20.2813 86.4813 21.0604 83.897 21.0604L83.9205 21.0368ZM100.789 19.809C100.789 19.5966 100.836 19.3841 100.93 19.1952L109.177 1.06237C109.482 0.377665 109.975 0.0471191 110.633 0.0471191H110.751C111.432 0.0471191 111.902 0.377665 112.184 1.06237L120.43 19.148C120.524 19.3841 120.571 19.5729 120.571 19.7382C120.571 20.0451 120.454 20.3049 120.242 20.5174C120.031 20.7299 119.772 20.8479 119.467 20.8479C118.973 20.8479 118.598 20.5646 118.339 19.9979L110.633 2.73871L102.927 20.0451C102.716 20.5646 102.34 20.8243 101.823 20.8243C101.541 20.8243 101.283 20.7299 101.071 20.5174C100.86 20.3049 100.766 20.0688 100.766 19.7618L100.789 19.809ZM129.311 19.691V1.46374C129.311 1.15681 129.428 0.873484 129.64 0.63738C129.851 0.401276 130.133 0.283223 130.439 0.283223H138.051C140.541 0.283223 142.467 0.967926 143.83 2.33733C144.887 3.37619 145.404 4.72198 145.404 6.37471V6.42193C145.404 8.02744 144.911 9.34963 143.948 10.3649C142.961 11.3801 141.645 12.0412 139.977 12.3482L145.028 18.8882C145.287 19.1716 145.404 19.4549 145.404 19.7382C145.404 20.0451 145.287 20.3285 145.052 20.541C144.817 20.7535 144.535 20.8715 144.253 20.8715C143.854 20.8715 143.478 20.659 143.172 20.2576L137.44 12.7968H131.613V19.7146C131.613 20.0452 131.496 20.3285 131.261 20.541C131.026 20.7535 130.767 20.8715 130.439 20.8715C130.11 20.8715 129.875 20.7535 129.64 20.5174C129.428 20.2813 129.311 20.0215 129.311 19.691ZM131.613 10.6954H137.863C139.413 10.6954 140.682 10.3177 141.645 9.56212C142.608 8.80659 143.102 7.79134 143.102 6.49277V6.44555C143.102 5.17058 142.632 4.20255 141.716 3.49424C140.799 2.78593 139.531 2.43177 137.886 2.43177H131.613V10.719V10.6954ZM156.963 10.6954H163.213C164.763 10.6954 166.032 10.3177 166.995 9.56212C167.958 8.80659 168.452 7.79134 168.452 6.49277V6.44555C168.452 5.17058 167.982 4.20255 167.066 3.49424C166.149 2.78593 164.881 2.43177 163.236 2.43177H156.963V10.719V10.6954ZM154.661 19.691V1.46374C154.661 1.15681 154.778 0.873484 154.99 0.63738C155.201 0.401276 155.483 0.283223 155.789 0.283223H163.401C165.891 0.283223 167.817 0.967926 169.18 2.33733C170.214 3.37619 170.754 4.72198 170.754 6.37471V6.42193C170.754 8.02744 170.261 9.34963 169.298 10.3649C168.311 11.3801 166.995 12.0412 165.327 12.3482L170.378 18.8882C170.637 19.1716 170.754 19.4549 170.754 19.7382C170.754 20.0451 170.637 20.3285 170.402 20.541C170.167 20.7535 169.885 20.8715 169.603 20.8715C169.204 20.8715 168.828 20.659 168.522 20.2576L162.79 12.7968H156.963V19.7146C156.963 20.0452 156.846 20.3285 156.611 20.541C156.376 20.7535 156.117 20.8715 155.789 20.8715C155.46 20.8715 155.225 20.7535 154.99 20.5174C154.778 20.2813 154.661 20.0215 154.661 19.691Z" fill="#D1AF56"/>
<path d="M146.295 46.8432V32.795C146.295 32.5589 146.366 32.3464 146.554 32.1575C146.718 31.9686 146.93 31.8978 147.165 31.8978C147.4 31.8978 147.611 31.9922 147.799 32.1575C147.987 32.3228 148.057 32.5352 148.057 32.795V46.0876H156.163C156.398 46.0876 156.586 46.1585 156.727 46.3237C156.891 46.489 156.962 46.6779 156.962 46.914C156.962 47.1501 156.891 47.339 156.727 47.4806C156.562 47.6223 156.374 47.7168 156.163 47.7168H147.141C146.906 47.7168 146.695 47.6223 146.53 47.457C146.342 47.2682 146.272 47.0557 146.272 46.8196L146.295 46.8432ZM111.712 46.9612V33.6685H107.178C106.943 33.6685 106.755 33.5977 106.591 33.4324C106.426 33.2672 106.356 33.0783 106.356 32.8658C106.356 32.6297 106.45 32.4408 106.591 32.2755C106.732 32.1103 106.943 32.0394 107.178 32.0394H118.032C118.244 32.0394 118.455 32.1103 118.62 32.2755C118.784 32.4408 118.854 32.6297 118.854 32.8658C118.854 33.0783 118.784 33.2672 118.62 33.4324C118.455 33.5977 118.267 33.6685 118.032 33.6685H113.498V46.9612C113.498 47.2209 113.404 47.4334 113.239 47.5987C113.051 47.764 112.864 47.8584 112.605 47.8584C112.347 47.8584 112.159 47.764 111.994 47.5987C111.806 47.4334 111.736 47.2209 111.736 46.9612H111.712ZM97.8744 46.9612V32.8186C97.8744 32.5825 97.9683 32.37 98.1328 32.1811C98.2973 31.9922 98.5087 31.9214 98.7436 31.9214C99.0021 31.9214 99.2135 32.0158 99.378 32.1811C99.5424 32.3464 99.6364 32.5589 99.6364 32.8186V46.9612C99.6364 47.2209 99.5424 47.4334 99.378 47.5987C99.2135 47.764 99.0021 47.8584 98.7436 47.8584C98.4852 47.8584 98.2973 47.764 98.1328 47.5987C97.9683 47.4098 97.8744 47.1973 97.8744 46.9612ZM81.1936 40.5864H85.0701C86.3623 40.5864 87.4195 40.2795 88.1949 39.642C88.9701 39.0045 89.3695 38.1781 89.3695 37.1393V37.0921C89.3695 36.006 88.9936 35.156 88.2418 34.5657C87.49 33.9755 86.4563 33.6685 85.1641 33.6685H81.1936V40.5864ZM79.4316 46.9612V32.913C79.4316 32.6769 79.5256 32.4644 79.69 32.2755C79.8545 32.0867 80.0659 32.0158 80.3009 32.0158H85.2816C87.0671 32.0158 88.4768 32.4644 89.534 33.338C90.5912 34.2352 91.1316 35.4393 91.1316 36.9976V37.0448C91.1316 38.674 90.5442 39.9489 89.3695 40.8461C88.1949 41.7433 86.7382 42.1919 84.9762 42.1919H81.1701V46.9612C81.1701 47.2209 81.0762 47.4334 80.8882 47.5987C80.7238 47.764 80.5123 47.8584 80.2774 47.8584C80.0424 47.8584 79.831 47.764 79.6665 47.5987C79.5021 47.4098 79.4081 47.1973 79.4081 46.9612H79.4316ZM45.8587 48.0237C43.6268 48.0237 41.7473 47.2445 40.2671 45.6863C38.7635 44.128 38.0117 42.2155 38.0117 39.9253V39.8781C38.0117 37.6115 38.7635 35.699 40.2671 34.1171C41.7708 32.5352 43.6503 31.7561 45.9292 31.7561C47.1039 31.7561 48.1376 31.9214 49.0069 32.2755C49.8762 32.6297 50.722 33.1255 51.5208 33.8102C51.7557 34.0227 51.8732 34.2588 51.8732 34.5185C51.8732 34.7546 51.7792 34.9671 51.5912 35.1324C51.4268 35.2977 51.2153 35.3921 50.9804 35.3921C50.7924 35.3921 50.6045 35.3213 50.393 35.1796C49.0539 33.9755 47.5503 33.3852 45.9057 33.3852C44.2611 33.3852 42.734 33.9991 41.5828 35.2504C40.4316 36.5018 39.8442 38.0129 39.8442 39.8309V39.8781C39.8442 41.6961 40.4316 43.2544 41.5828 44.5057C42.734 45.7571 44.1906 46.371 45.9057 46.371C47.6208 46.371 49.1714 45.7335 50.5575 44.4585C50.722 44.2932 50.9099 44.2224 51.1214 44.2224C51.3563 44.2224 51.5442 44.3169 51.7087 44.4821C51.8732 44.6474 51.9671 44.8599 51.9671 45.0724C51.9671 45.3321 51.8732 45.5446 51.6852 45.7099C49.9936 47.2445 48.0671 48.0237 45.8822 48.0237H45.8587ZM57.4882 47.0557C57.4882 46.8904 57.5352 46.7251 57.6057 46.5835L63.9491 32.6297C64.184 32.1103 64.5599 31.8505 65.0768 31.8505H65.1708C65.6876 31.8505 66.0635 32.1103 66.275 32.6297L72.6183 46.5598C72.6888 46.7487 72.7358 46.8904 72.7358 47.0084C72.7358 47.2445 72.6653 47.457 72.5009 47.6223C72.3364 47.7876 72.125 47.882 71.89 47.882C71.4906 47.882 71.2087 47.6695 71.0208 47.2445L65.1003 33.9755L59.1798 47.2918C59.0153 47.6931 58.7334 47.9056 58.334 47.9056C58.0991 47.9056 57.9111 47.8348 57.7702 47.6695C57.6057 47.5279 57.5352 47.3154 57.5352 47.1029L57.4882 47.0557ZM124.352 47.0557C124.352 46.8904 124.399 46.7251 124.47 46.5835L130.813 32.6297C131.048 32.1103 131.424 31.8505 131.917 31.8505H132.011C132.528 31.8505 132.904 32.1103 133.115 32.6297L139.459 46.5598C139.529 46.7487 139.576 46.8904 139.576 47.0084C139.576 47.2445 139.482 47.457 139.318 47.6223C139.153 47.7876 138.942 47.882 138.707 47.882C138.331 47.882 138.026 47.6695 137.838 47.2445L131.917 33.9755L125.997 47.2918C125.832 47.6931 125.55 47.9056 125.151 47.9056C124.939 47.9056 124.728 47.8348 124.587 47.6695C124.423 47.5279 124.352 47.3154 124.352 47.1029V47.0557Z" fill="#D1AF56"/>
<path fill-rule="evenodd" clip-rule="evenodd" d="M63.9046 15.2522V21.084H58.0781L63.9046 15.2522Z" fill="#D1AF56"/>
<path d="M56.4108 21.0841H49.0337C48.4699 21.0841 48 20.6355 48 20.0452V1.74711C48 1.18046 48.4464 0.708252 49.0337 0.708252H62.8482C63.412 0.708252 63.8819 1.15685 63.8819 1.74711V13.6704C63.8819 13.9537 63.7645 14.2134 63.5765 14.4023L57.1627 20.8007C56.9747 20.9896 56.7163 21.0841 56.4578 21.0841H56.4108ZM50.044 19.0299H55.988L61.8145 13.2218V2.76236H50.044V19.0299Z" fill="#D1AF56"/>
</g>
<defs>
<clipPath id="clip0_752_170">
<rect width="195" height="48" fill="white"/>
</clipPath>
</defs>
</svg>
